<svg width="264" height="167" viewBox="0 0 264 167" fill="none" xmlns="http://www.w3.org/2000/svg">
<g clip-path="url(#clip0_4_6)">
<mask id="path-1-outside-1_4_6" maskUnits="userSpaceOnUse" x="5" y="3" width="258" height="160" fill="black">
<rect fill="white" x="5" y="3" width="258" height="160"/>
<path d="M91.8 99.55C85.65 120.25 77.55 135.25 67.5 144.4C57.3 153.55 46.2 157.9 34.2 157.3C28.05 157.15 22.8 155.05 18.6 151C14.25 146.95 12.3 141.55 12.75 134.95C13.05 128.65 16.5 123.7 22.8 120.4C29.1 117.1 34.65 117.25 39.45 121.15C37.65 122.05 36.6 122.95 36.3 124.15C36 125.35 36.15 126.55 37.05 127.45C37.95 128.35 39 128.95 40.5 128.95C42.9 129.25 45.45 128.65 48.45 127.3C51.45 126.1 54.75 123.7 58.65 120.4C62.55 117.1 66.6 112 71.1 104.8C75.6 97.6 79.95 88.9 84.15 78.7C84 78.7 83.85 78.55 83.7 78.4C78.3 89.05 71.85 98.05 64.65 105.55C57.3 113.05 51 116.65 45.6 116.65C40.8 116.65 37.05 115.3 34.2 112.45C31.35 109.6 30 105.7 30 100.9C30 97.6 31.05 93.7 33.15 89.5C35.25 85.3 37.8 81.1 40.8 76.9L49.95 64.45C52.95 60.25 55.65 56.05 57.75 51.55C59.85 47.05 60.9 43 60.9 39.4C60.9 36.25 59.85 33.25 57.75 30.4C55.65 27.55 52.95 26.05 49.65 26.05C46.65 26.05 44.4 26.8 42.9 28C41.4 29.2 40.65 30.7 40.65 32.5C40.65 33.7 40.95 34.75 41.85 35.65C42.6 36.55 43.65 36.85 44.85 36.85C47.1 36.85 48.45 36.1 48.9 34.3C52.5 36.55 54.3 39.85 54.3 44.2C54.3 49.45 52.2 54.1 48.15 58C43.95 61.9 38.85 63.85 32.55 63.85C25.95 63.85 20.55 61.6 16.5 56.8C12.45 52.15 10.5 46.45 10.5 39.7C10.5 31.15 13.8 23.8 20.4 17.5C27 11.2 35.7 8.04999 46.5 8.04999C57.3 8.04999 66 11.2 72.75 17.5C79.5 23.8 82.95 31.15 82.95 39.4C82.95 44.35 81 50.35 77.1 57.25C73.2 64.15 69.3 70.6 65.4 76.45C61.5 82.45 59.55 86.5 59.55 88.9C59.55 89.8 59.85 90.4 60.45 91C61.05 91.6 61.8 91.75 62.7 91.75C65.7 91.75 69.9 88.75 75.3 82.6C80.55 76.45 85.2 69.55 89.1 61.9C91.65 54.4 94.65 47.8 97.95 42.4C101.25 37 104.7 33.1 108.15 30.4C111.45 27.7 114.6 25.9 117.6 24.7C120.6 23.65 123.45 23.05 126.3 23.05C130.2 23.05 133.35 24.25 135.75 26.65C138 29.05 139.05 31.9 139.05 35.2C138.75 38.5 137.55 41.5 135.15 44.35C132.75 47.35 129.45 49.6 124.95 51.1C125.85 49 125.55 47.35 124.2 45.85C122.85 44.35 121.2 43.6 119.4 43.6C116.4 43.6 113.25 45.1 110.1 47.95C106.95 50.8 104.25 54.85 102 60.25C99.9 65.35 97.8 72.4 95.85 81.55C93.9 90.85 92.55 96.85 91.8 99.55ZM154.059 56.2L141.009 84.1C138.309 89.95 136.809 93.55 136.659 94.75C136.059 97 136.809 98.05 138.759 98.05C141.609 98.05 144.759 95.05 148.209 89.05L147.309 91.45C140.709 107.8 132.909 115.9 123.909 115.9C120.009 115.9 117.159 115 115.359 113.05C113.559 111.25 112.659 108.7 112.959 105.4C113.259 102.25 113.859 99.1 115.059 95.95C116.109 92.8 117.609 89.5 119.409 85.9L133.809 56.2H154.059ZM141.159 34.15C142.059 30.85 144.009 27.85 147.009 25.45C150.009 23.05 153.309 21.7 156.909 21.7C160.209 21.7 162.909 22.9 164.709 25.3C166.509 27.7 166.959 30.7 166.059 34.15C165.159 37.75 163.059 40.6 160.059 43C157.059 45.4 153.759 46.6 150.459 46.6C146.859 46.6 144.309 45.4 142.509 43C140.709 40.6 140.259 37.6 141.159 34.15ZM227.896 22.6L198.946 84.1C196.246 89.95 194.746 93.55 194.596 94.75C193.996 97 194.746 98.05 196.696 98.05C199.546 98.05 202.696 95.05 206.146 89.05C203.896 95.65 200.596 101.8 196.246 107.5C191.896 113.2 187.096 115.9 181.846 115.9C173.446 115.9 170.596 109.9 173.446 97.9C167.446 109.9 161.146 115.75 154.546 115.75C151.546 115.75 149.146 114.55 147.346 112.15C145.396 109.75 144.496 106.75 144.496 103.3C144.496 97 146.296 89.95 150.046 82.3C153.646 74.65 158.446 68.05 164.446 62.65C170.446 57.25 176.146 54.55 181.696 54.55C187.246 54.55 189.946 57.7 189.796 63.85H190.846L208.546 23.95C213.646 26.05 220.096 25.6 227.896 22.6ZM177.946 84.4L180.496 79.3C180.946 78.1 181.396 77.05 181.846 76.15C182.146 75.25 182.596 73.9 183.196 72.25C183.796 70.6 183.946 69.25 183.946 68.35C183.946 67.45 183.496 66.85 182.896 66.85C180.646 66.85 177.646 70.45 173.896 77.35C169.696 85.15 168.046 90.55 168.646 93.55C168.946 94.45 169.396 94.9 170.146 94.9C171.796 94.9 174.346 91.45 177.946 84.4ZM257.407 80.5L257.707 80.35C253.507 94.75 247.207 102.25 238.807 102.55C231.457 111.85 224.107 116.35 216.757 116.35C211.507 116.35 207.757 114.7 205.507 111.4C203.107 108.1 202.057 103.75 202.357 98.05C202.807 88.75 207.007 79.15 214.807 69.4C222.607 59.65 231.457 54.7 241.357 54.7C244.957 54.7 247.807 56.05 249.907 58.6C252.007 61.15 253.207 64.45 253.207 68.35C253.207 74.65 251.107 81.85 247.057 89.8C250.657 89.5 254.107 86.5 257.407 80.5ZM226.357 98.8C227.707 98.8 229.207 98.2 230.707 97C229.807 93.85 230.407 90.85 232.207 88C233.857 85.3 236.857 83.65 241.057 82.9C244.657 75.55 245.557 70.6 244.057 68.05C243.457 67.3 242.707 66.85 241.807 66.85C239.107 66.85 235.657 70.6 231.457 77.8C226.657 85.9 224.257 91.9 224.407 96.1C224.407 97.9 225.007 98.8 226.357 98.8Z"/>
</mask>
<path d="M91.8 99.55C85.65 120.25 77.55 135.25 67.5 144.4C57.3 153.55 46.2 157.9 34.2 157.3C28.05 157.15 22.8 155.05 18.6 151C14.25 146.95 12.3 141.55 12.75 134.95C13.05 128.65 16.5 123.7 22.8 120.4C29.1 117.1 34.65 117.25 39.45 121.15C37.65 122.05 36.6 122.95 36.3 124.15C36 125.35 36.15 126.55 37.05 127.45C37.95 128.35 39 128.95 40.5 128.95C42.9 129.25 45.45 128.65 48.45 127.3C51.45 126.1 54.75 123.7 58.65 120.4C62.55 117.1 66.6 112 71.1 104.8C75.6 97.6 79.95 88.9 84.15 78.7C84 78.7 83.85 78.55 83.7 78.4C78.3 89.05 71.85 98.05 64.65 105.55C57.3 113.05 51 116.65 45.6 116.65C40.8 116.65 37.05 115.3 34.2 112.45C31.35 109.6 30 105.7 30 100.9C30 97.6 31.05 93.7 33.15 89.5C35.25 85.3 37.8 81.1 40.8 76.9L49.95 64.45C52.95 60.25 55.65 56.05 57.75 51.55C59.85 47.05 60.9 43 60.9 39.4C60.9 36.25 59.85 33.25 57.75 30.4C55.65 27.55 52.95 26.05 49.65 26.05C46.65 26.05 44.4 26.8 42.9 28C41.4 29.2 40.65 30.7 40.65 32.5C40.65 33.7 40.95 34.75 41.85 35.65C42.6 36.55 43.65 36.85 44.85 36.85C47.1 36.85 48.45 36.1 48.9 34.3C52.5 36.55 54.3 39.85 54.3 44.2C54.3 49.45 52.2 54.1 48.15 58C43.95 61.9 38.85 63.85 32.55 63.85C25.95 63.85 20.55 61.6 16.5 56.8C12.45 52.15 10.5 46.45 10.5 39.7C10.5 31.15 13.8 23.8 20.4 17.5C27 11.2 35.7 8.04999 46.5 8.04999C57.3 8.04999 66 11.2 72.75 17.5C79.5 23.8 82.95 31.15 82.95 39.4C82.95 44.35 81 50.35 77.1 57.25C73.2 64.15 69.3 70.6 65.4 76.45C61.5 82.45 59.55 86.5 59.55 88.9C59.55 89.8 59.85 90.4 60.45 91C61.05 91.6 61.8 91.75 62.7 91.75C65.7 91.75 69.9 88.75 75.3 82.6C80.55 76.45 85.2 69.55 89.1 61.9C91.65 54.4 94.65 47.8 97.95 42.4C101.25 37 104.7 33.1 108.15 30.4C111.45 27.7 114.6 25.9 117.6 24.7C120.6 23.65 123.45 23.05 126.3 23.05C130.2 23.05 133.35 24.25 135.75 26.65C138 29.05 139.05 31.9 139.05 35.2C138.75 38.5 137.55 41.5 135.15 44.35C132.75 47.35 129.45 49.6 124.95 51.1C125.85 49 125.55 47.35 124.2 45.85C122.85 44.35 121.2 43.6 119.4 43.6C116.4 43.6 113.25 45.1 110.1 47.95C106.95 50.8 104.25 54.85 102 60.25C99.9 65.35 97.8 72.4 95.85 81.55C93.9 90.85 92.55 96.85 91.8 99.55ZM154.059 56.2L141.009 84.1C138.309 89.95 136.809 93.55 136.659 94.75C136.059 97 136.809 98.05 138.759 98.05C141.609 98.05 144.759 95.05 148.209 89.05L147.309 91.45C140.709 107.8 132.909 115.9 123.909 115.9C120.009 115.9 117.159 115 115.359 113.05C113.559 111.25 112.659 108.7 112.959 105.4C113.259 102.25 113.859 99.1 115.059 95.95C116.109 92.8 117.609 89.5 119.409 85.9L133.809 56.2H154.059ZM141.159 34.15C142.059 30.85 144.009 27.85 147.009 25.45C150.009 23.05 153.309 21.7 156.909 21.7C160.209 21.7 162.909 22.9 164.709 25.3C166.509 27.7 166.959 30.7 166.059 34.15C165.159 37.75 163.059 40.6 160.059 43C157.059 45.4 153.759 46.6 150.459 46.6C146.859 46.6 144.309 45.4 142.509 43C140.709 40.6 140.259 37.6 141.159 34.15ZM227.896 22.6L198.946 84.1C196.246 89.95 194.746 93.55 194.596 94.75C193.996 97 194.746 98.05 196.696 98.05C199.546 98.05 202.696 95.05 206.146 89.05C203.896 95.65 200.596 101.8 196.246 107.5C191.896 113.2 187.096 115.9 181.846 115.9C173.446 115.9 170.596 109.9 173.446 97.9C167.446 109.9 161.146 115.75 154.546 115.75C151.546 115.75 149.146 114.55 147.346 112.15C145.396 109.75 144.496 106.75 144.496 103.3C144.496 97 146.296 89.95 150.046 82.3C153.646 74.65 158.446 68.05 164.446 62.65C170.446 57.25 176.146 54.55 181.696 54.55C187.246 54.55 189.946 57.7 189.796 63.85H190.846L208.546 23.95C213.646 26.05 220.096 25.6 227.896 22.6ZM177.946 84.4L180.496 79.3C180.946 78.1 181.396 77.05 181.846 76.15C182.146 75.25 182.596 73.9 183.196 72.25C183.796 70.6 183.946 69.25 183.946 68.35C183.946 67.45 183.496 66.85 182.896 66.85C180.646 66.85 177.646 70.45 173.896 77.35C169.696 85.15 168.046 90.55 168.646 93.55C168.946 94.45 169.396 94.9 170.146 94.9C171.796 94.9 174.346 91.45 177.946 84.4ZM257.407 80.5L257.707 80.35C253.507 94.75 247.207 102.25 238.807 102.55C231.457 111.85 224.107 116.35 216.757 116.35C211.507 116.35 207.757 114.7 205.507 111.4C203.107 108.1 202.057 103.75 202.357 98.05C202.807 88.75 207.007 79.15 214.807 69.4C222.607 59.65 231.457 54.7 241.357 54.7C244.957 54.7 247.807 56.05 249.907 58.6C252.007 61.15 253.207 64.45 253.207 68.35C253.207 74.65 251.107 81.85 247.057 89.8C250.657 89.5 254.107 86.5 257.407 80.5ZM226.357 98.8C227.707 98.8 229.207 98.2 230.707 97C229.807 93.85 230.407 90.85 232.207 88C233.857 85.3 236.857 83.65 241.057 82.9C244.657 75.55 245.557 70.6 244.057 68.05C243.457 67.3 242.707 66.85 241.807 66.85C239.107 66.85 235.657 70.6 231.457 77.8C226.657 85.9 224.257 91.9 224.407 96.1C224.407 97.9 225.007 98.8 226.357 98.8Z" fill="url(#paint0_linear_4_6)"/>
<path d="M91.8 99.55L96.5929 100.974C96.6014 100.945 96.6096 100.917 96.6176 100.888L91.8 99.55ZM67.5 144.4L70.8388 148.122C70.8479 148.114 70.857 148.105 70.8661 148.097L67.5 144.4ZM34.2 157.3L34.4497 152.306C34.4071 152.304 34.3645 152.303 34.3219 152.301L34.2 157.3ZM18.6 151L22.0707 147.401C22.0497 147.381 22.0285 147.36 22.0071 147.341L18.6 151ZM12.75 134.95L17.7384 135.29C17.7407 135.256 17.7427 135.222 17.7443 135.188L12.75 134.95ZM22.8 120.4L25.12 124.829L25.12 124.829L22.8 120.4ZM39.45 121.15L41.6861 125.622C43.2052 124.863 44.2348 123.384 44.4201 121.696C44.6055 120.007 43.9211 118.34 42.603 117.269L39.45 121.15ZM37.05 127.45L33.5145 130.986L33.5145 130.986L37.05 127.45ZM40.5 128.95L41.1202 123.989C40.9145 123.963 40.7073 123.95 40.5 123.95L40.5 128.95ZM48.45 127.3L46.593 122.658C46.5275 122.684 46.4625 122.711 46.3982 122.74L48.45 127.3ZM58.65 120.4L61.8797 124.217L61.8797 124.217L58.65 120.4ZM71.1 104.8L75.34 107.45L75.34 107.45L71.1 104.8ZM84.15 78.7L88.7734 80.6037C89.4085 79.0613 89.2326 77.3038 88.3044 75.9178C87.3763 74.5318 85.8181 73.7 84.15 73.7V78.7ZM83.7 78.4L87.2356 74.8645C86.1026 73.7315 84.4953 73.2101 82.913 73.4623C81.3307 73.7145 79.9651 74.7098 79.2405 76.1388L83.7 78.4ZM64.65 105.55L68.2211 109.05C68.2331 109.037 68.245 109.025 68.2569 109.013L64.65 105.55ZM34.2 112.45L37.7355 108.914L37.7355 108.914L34.2 112.45ZM33.15 89.5L37.6221 91.7361L37.6221 91.7361L33.15 89.5ZM40.8 76.9L36.7711 73.939C36.7577 73.9572 36.7445 73.9754 36.7313 73.9938L40.8 76.9ZM49.95 64.45L53.9789 67.411C53.9923 67.3928 54.0055 67.3746 54.0187 67.3562L49.95 64.45ZM42.9 28L39.7765 24.0956L39.7765 24.0957L42.9 28ZM41.85 35.65L45.6911 32.4491C45.5944 32.333 45.4924 32.2213 45.3855 32.1145L41.85 35.65ZM48.9 34.3L51.55 30.06C50.1932 29.212 48.5124 29.0645 47.0287 29.6634C45.5449 30.2622 44.4374 31.535 44.0493 33.0873L48.9 34.3ZM48.15 58L51.5523 61.664C51.5744 61.6434 51.5964 61.6226 51.6182 61.6016L48.15 58ZM16.5 56.8L20.3215 53.5756C20.3046 53.5557 20.2876 53.5358 20.2704 53.5161L16.5 56.8ZM72.75 17.5L69.3384 21.1553L69.3384 21.1553L72.75 17.5ZM77.1 57.25L72.7472 54.7897L72.7472 54.7897L77.1 57.25ZM65.4 76.45L61.2398 73.6765C61.229 73.6926 61.2183 73.7088 61.2078 73.7251L65.4 76.45ZM60.45 91L63.9856 87.4645L63.9855 87.4645L60.45 91ZM75.3 82.6L79.0572 85.899C79.0725 85.8815 79.0877 85.864 79.1028 85.8463L75.3 82.6ZM89.1 61.9L93.5545 64.1709C93.6634 63.9574 93.7567 63.7364 93.8339 63.5095L89.1 61.9ZM97.95 42.4L102.216 45.0072L102.216 45.0072L97.95 42.4ZM108.15 30.4L111.232 34.3375C111.26 34.3153 111.288 34.2927 111.316 34.2698L108.15 30.4ZM117.6 24.7L115.948 19.9807C115.879 20.0048 115.811 20.0305 115.743 20.0576L117.6 24.7ZM135.75 26.65L139.398 23.2303C139.361 23.1911 139.324 23.1525 139.286 23.1145L135.75 26.65ZM139.05 35.2L144.029 35.6527C144.043 35.5022 144.05 35.3511 144.05 35.2H139.05ZM135.15 44.35L131.325 41.1293C131.298 41.1614 131.272 41.1938 131.246 41.2265L135.15 44.35ZM124.95 51.1L120.354 49.1304C119.579 50.9402 119.937 53.0366 121.271 54.4855C122.604 55.9345 124.663 56.4661 126.531 55.8434L124.95 51.1ZM124.2 45.85L127.916 42.5052L127.916 42.5052L124.2 45.85ZM110.1 47.95L106.745 44.2423L106.745 44.2423L110.1 47.95ZM102 60.25L97.3846 58.3269C97.3819 58.3334 97.3793 58.3398 97.3766 58.3462L102 60.25ZM95.85 81.55L90.9598 80.5078C90.9587 80.5132 90.9575 80.5186 90.9564 80.5239L95.85 81.55ZM87.0071 98.126C80.9753 118.428 73.219 132.431 64.1339 140.703L70.8661 148.097C81.881 138.069 90.3247 122.072 96.5929 100.974L87.0071 98.126ZM64.1612 140.678C54.7763 149.097 44.9248 152.83 34.4497 152.306L33.9503 162.294C47.4752 162.97 59.8237 158.003 70.8388 148.122L64.1612 140.678ZM34.3219 152.301C29.3309 152.18 25.3042 150.519 22.0707 147.401L15.1293 154.599C20.2958 159.581 26.7692 162.12 34.0781 162.299L34.3219 152.301ZM22.0071 147.341C18.9055 144.453 17.3766 140.597 17.7384 135.29L7.76158 134.61C7.22342 142.503 9.59451 149.447 15.1929 154.659L22.0071 147.341ZM17.7443 135.188C17.9466 130.94 20.1278 127.444 25.12 124.829L20.48 115.971C12.8722 119.956 8.15337 126.36 7.75566 134.712L17.7443 135.188ZM25.12 124.829C27.7273 123.463 29.8166 123.003 31.485 123.071C33.081 123.136 34.6524 123.694 36.297 125.031L42.603 117.269C39.4476 114.706 35.844 113.239 31.89 113.079C28.0084 112.922 24.1727 114.037 20.48 115.971L25.12 124.829ZM37.2139 116.678C35.2181 117.676 32.3215 119.449 31.4493 122.937L41.1507 125.363C41.0915 125.6 40.9964 125.808 40.8931 125.972C40.795 126.127 40.7158 126.201 40.7148 126.201C40.7143 126.202 40.7309 126.186 40.7703 126.157C40.8097 126.126 40.8681 126.085 40.95 126.032C41.1174 125.924 41.355 125.788 41.6861 125.622L37.2139 116.678ZM31.4493 122.937C30.8672 125.266 31.0038 128.475 33.5145 130.986L40.5855 123.914C40.8636 124.193 41.0553 124.569 41.1279 124.932C41.1908 125.246 41.1388 125.411 41.1507 125.363L31.4493 122.937ZM33.5145 130.986C35.1162 132.587 37.3738 133.95 40.5 133.95V123.95C40.4795 123.95 40.4724 123.949 40.4771 123.949C40.4819 123.95 40.4957 123.952 40.5168 123.956C40.538 123.961 40.5628 123.968 40.5898 123.977C40.6167 123.986 40.6419 123.996 40.6644 124.007C40.7112 124.028 40.7311 124.044 40.7212 124.037C40.7089 124.028 40.6644 123.993 40.5855 123.914L33.5145 130.986ZM39.8798 133.911C43.5683 134.372 47.0982 133.391 50.5018 131.86L46.3982 122.74C43.8018 123.909 42.2317 124.128 41.1202 123.989L39.8798 133.911ZM50.307 131.942C54.1196 130.417 57.9489 127.543 61.8797 124.217L55.4203 116.583C51.5511 119.857 48.7804 121.783 46.593 122.658L50.307 131.942ZM61.8797 124.217C66.3567 120.429 70.7297 114.827 75.34 107.45L66.86 102.15C62.4703 109.173 58.7433 113.771 55.4203 116.583L61.8797 124.217ZM75.34 107.45C80.0248 99.9543 84.4965 90.9906 88.7734 80.6037L79.5266 76.7962C75.4036 86.8094 71.1752 95.2457 66.86 102.15L75.34 107.45ZM84.15 73.7C85.7065 73.7 86.7127 74.447 86.925 74.6062C87.1898 74.8049 87.3759 75.0048 87.2356 74.8645L80.1644 81.9355C80.1741 81.9451 80.5102 82.2951 80.925 82.6062C81.2873 82.878 82.4435 83.7 84.15 83.7V73.7ZM79.2405 76.1388C74.0552 86.3654 67.8882 94.957 61.0431 102.087L68.2569 109.013C75.8118 101.143 82.5448 91.7346 88.1595 80.6612L79.2405 76.1388ZM61.0789 102.05C53.9264 109.349 48.8754 111.65 45.6 111.65V121.65C53.1246 121.65 60.6736 116.751 68.2211 109.05L61.0789 102.05ZM45.6 111.65C41.8113 111.65 39.4466 110.625 37.7355 108.914L30.6645 115.986C34.6534 119.975 39.7887 121.65 45.6 121.65V111.65ZM37.7355 108.914C36.0531 107.232 35 104.739 35 100.9H25C25 106.661 26.6469 111.968 30.6645 115.986L37.7355 108.914ZM35 100.9C35 98.6045 35.7503 95.4797 37.6221 91.7361L28.6779 87.2639C26.3497 91.9203 25 96.5955 25 100.9H35ZM37.6221 91.7361C39.5945 87.7913 42.0057 83.8143 44.8687 79.8062L36.7313 73.9938C33.5943 78.3857 30.9055 82.8087 28.6779 87.2639L37.6221 91.7361ZM44.8289 79.861L53.9789 67.411L45.9211 61.489L36.7711 73.939L44.8289 79.861ZM54.0187 67.3562C57.0997 63.0427 59.9961 58.5606 62.2809 53.6644L53.2191 49.4356C51.3039 53.5394 48.8003 57.4573 45.8813 61.5438L54.0187 67.3562ZM62.2809 53.6644C64.5797 48.7386 65.9 43.9528 65.9 39.4H55.9C55.9 42.0472 55.1203 45.3614 53.2191 49.4356L62.2809 53.6644ZM65.9 39.4C65.9 35.0521 64.4264 31.0319 61.7753 27.434L53.7247 33.366C55.2737 35.4681 55.9 37.4479 55.9 39.4H65.9ZM61.7753 27.434C58.8629 23.4814 54.7458 21.05 49.65 21.05V31.05C51.1542 31.05 52.4371 31.6186 53.7247 33.366L61.7753 27.434ZM49.65 21.05C45.8601 21.05 42.3997 21.9971 39.7765 24.0956L46.0235 31.9043C46.4003 31.6029 47.4399 31.05 49.65 31.05V21.05ZM39.7765 24.0957C37.1821 26.1712 35.65 29.0674 35.65 32.5H45.65C45.65 32.3992 45.6603 32.3409 45.6663 32.3143C45.672 32.2891 45.678 32.2744 45.6846 32.2611C45.6922 32.246 45.7564 32.118 46.0235 31.9043L39.7765 24.0957ZM35.65 32.5C35.65 34.6463 36.2386 37.1097 38.3145 39.1855L45.3855 32.1145C45.4087 32.1377 45.4542 32.1886 45.5045 32.2677C45.555 32.3474 45.5942 32.4301 45.6212 32.5058C45.6746 32.6553 45.65 32.6899 45.65 32.5H35.65ZM38.0089 38.8509C40.0662 41.3197 42.8333 41.85 44.85 41.85V31.85C44.6443 31.85 44.7084 31.8212 44.9178 31.8988C45.0303 31.9404 45.1709 32.0078 45.3192 32.1109C45.4691 32.215 45.5944 32.333 45.6911 32.4491L38.0089 38.8509ZM44.85 41.85C46.4445 41.85 48.3857 41.599 50.1573 40.5164C52.1054 39.3259 53.254 37.4994 53.7507 35.5127L44.0493 33.0873C44.0603 33.0434 44.1165 32.8508 44.2892 32.6025C44.4702 32.3423 44.7041 32.1295 44.9427 31.9836C45.1648 31.8479 45.3127 31.8175 45.3003 31.8202C45.2816 31.8243 45.146 31.85 44.85 31.85V41.85ZM46.25 38.54C48.3447 39.8492 49.3 41.5222 49.3 44.2H59.3C59.3 38.1778 56.6553 33.2508 51.55 30.06L46.25 38.54ZM49.3 44.2C49.3 47.9611 47.8509 51.3467 44.6818 54.3984L51.6182 61.6016C56.5491 56.8533 59.3 50.9389 59.3 44.2H49.3ZM44.7477 54.336C41.5439 57.311 37.6887 58.85 32.55 58.85V68.85C40.0113 68.85 46.3561 66.489 51.5523 61.664L44.7477 54.336ZM32.55 58.85C27.2278 58.85 23.3022 57.1084 20.3215 53.5756L12.6785 60.0244C17.7978 66.0916 24.6722 68.85 32.55 68.85V58.85ZM20.2704 53.5161C17.1165 49.8949 15.5 45.4098 15.5 39.7H5.5C5.5 47.4902 7.78354 54.4051 12.7296 60.0839L20.2704 53.5161ZM15.5 39.7C15.5 32.6287 18.1565 26.5538 23.8524 21.1168L16.9476 13.8832C9.44352 21.0462 5.5 29.6713 5.5 39.7H15.5ZM23.8524 21.1168C29.3546 15.8646 36.7338 13.05 46.5 13.05V3.04999C34.6662 3.04999 24.6454 6.53538 16.9476 13.8832L23.8524 21.1168ZM46.5 13.05C56.2525 13.05 63.6628 15.858 69.3384 21.1553L76.1616 13.8447C68.3372 6.54198 58.3476 3.04999 46.5 3.04999V13.05ZM69.3384 21.1553C75.2214 26.6461 77.95 32.724 77.95 39.4H87.95C87.95 29.576 83.7786 20.9539 76.1616 13.8447L69.3384 21.1553ZM77.95 39.4C77.95 43.1277 76.4448 48.2478 72.7472 54.7897L81.4528 59.7103C85.5552 52.4522 87.95 45.5723 87.95 39.4H77.95ZM72.7472 54.7897C68.8907 61.6127 65.0551 67.9535 61.2398 73.6765L69.5603 79.2235C73.5449 73.2465 77.5093 66.6873 81.4528 59.7103L72.7472 54.7897ZM61.2078 73.7251C59.2029 76.8094 57.6046 79.5347 56.4921 81.8881C55.442 84.1096 54.55 86.5521 54.55 88.9H64.55C64.55 88.9436 64.5472 88.747 64.704 88.2252C64.8555 87.7213 65.1165 87.0426 65.5329 86.1619C66.3704 84.3903 67.6971 82.0906 69.5922 79.1749L61.2078 73.7251ZM54.55 88.9C54.55 89.9334 54.7281 91.0181 55.2059 92.0932C55.6741 93.1465 56.3193 93.9404 56.9145 94.5355L63.9855 87.4645C63.9807 87.4596 64.1759 87.6535 64.3441 88.0318C64.5219 88.4318 64.55 88.7666 64.55 88.9H54.55ZM56.9145 94.5355C58.9048 96.5258 61.2924 96.75 62.7 96.75V86.75C62.4928 86.75 62.6213 86.7275 62.8992 86.8109C63.0526 86.8569 63.2431 86.9322 63.4475 87.0514C63.654 87.1719 63.8354 87.3143 63.9856 87.4645L56.9145 94.5355ZM62.7 96.75C65.7635 96.75 68.6153 95.2791 71.0301 93.5327C73.5506 91.7099 76.2293 89.1196 79.0572 85.899L71.5428 79.301C68.9707 82.2304 66.8494 84.2151 65.1699 85.4298C63.3847 86.7209 62.6366 86.75 62.7 86.75V96.75ZM79.1028 85.8463C84.6066 79.399 89.4757 72.1718 93.5545 64.1709L84.6455 59.6291C80.9244 66.9282 76.4934 73.501 71.4972 79.3537L79.1028 85.8463ZM93.8339 63.5095C96.2925 56.2783 99.1481 50.0282 102.216 45.0072L93.6836 39.7927C90.152 45.5718 87.0075 52.5217 84.3661 60.2905L93.8339 63.5095ZM102.216 45.0072C105.272 40.0072 108.345 36.5963 111.232 34.3375L105.068 26.4625C101.055 29.6037 97.228 33.9928 93.6836 39.7928L102.216 45.0072ZM111.316 34.2698C114.242 31.8761 116.954 30.3437 119.457 29.3424L115.743 20.0576C112.246 21.4563 108.658 23.5239 104.984 26.5302L111.316 34.2698ZM119.252 29.4193C121.885 28.4976 124.164 28.05 126.3 28.05V18.05C122.736 18.05 119.315 18.8024 115.948 19.9807L119.252 29.4193ZM126.3 28.05C129.088 28.05 130.894 28.8647 132.214 30.1855L139.286 23.1145C135.806 19.6353 131.312 18.05 126.3 18.05V28.05ZM132.102 30.0697C133.425 31.4809 134.05 33.0826 134.05 35.2H144.05C144.05 30.7174 142.575 26.6191 139.398 23.2303L132.102 30.0697ZM134.071 34.7473C133.865 37.0133 133.076 39.0506 131.325 41.1293L138.975 47.5707C142.024 43.9494 143.635 39.9866 144.029 35.6527L134.071 34.7473ZM131.246 41.2265C129.535 43.3645 127.097 45.1138 123.369 46.3566L126.531 55.8434C131.803 54.0862 135.965 51.3355 139.054 47.4735L131.246 41.2265ZM129.546 53.0696C130.262 51.3991 130.668 49.5073 130.362 47.4978C130.053 45.467 129.092 43.8119 127.916 42.5052L120.484 49.1948C120.579 49.3008 120.586 49.3322 120.562 49.2857C120.55 49.2621 120.533 49.2236 120.516 49.1715C120.499 49.119 120.485 49.0615 120.476 49.0022C120.467 48.943 120.464 48.8921 120.465 48.8531C120.465 48.8147 120.468 48.7954 120.468 48.7985C120.466 48.8071 120.448 48.9125 120.354 49.1304L129.546 53.0696ZM127.916 42.5052C125.7 40.042 122.735 38.6 119.4 38.6V48.6C119.665 48.6 120 48.658 120.484 49.1948L127.916 42.5052ZM119.4 38.6C114.697 38.6 110.401 40.935 106.745 44.2423L113.455 51.6577C116.099 49.265 118.103 48.6 119.4 48.6V38.6ZM106.745 44.2423C102.901 47.7204 99.8302 52.4576 97.3846 58.3269L106.615 62.1731C108.67 57.2423 110.999 53.8796 113.455 51.6577L106.745 44.2423ZM97.3766 58.3462C95.1224 63.8207 92.9465 71.1857 90.9598 80.5078L100.74 82.5922C102.654 73.6142 104.678 66.8793 106.623 62.1537L97.3766 58.3462ZM90.9564 80.5239C88.9979 89.8644 87.681 95.6968 86.9824 98.2118L96.6176 100.888C97.419 98.0032 98.8021 91.8356 100.744 82.5761L90.9564 80.5239ZM154.059 56.2L158.588 58.3184C159.313 56.7698 159.196 54.9584 158.278 53.516C157.36 52.0735 155.769 51.2 154.059 51.2V56.2ZM141.009 84.1L136.48 81.9816C136.477 81.9893 136.473 81.997 136.47 82.0047L141.009 84.1ZM136.659 94.75L141.491 96.0383C141.549 95.8188 141.593 95.5956 141.621 95.3702L136.659 94.75ZM148.209 89.05L152.891 90.8056C153.805 88.3679 152.696 85.6365 150.34 84.5269C147.985 83.4172 145.173 84.3006 143.875 86.5576L148.209 89.05ZM147.309 91.45L151.946 93.3216C151.961 93.2831 151.976 93.2445 151.991 93.2056L147.309 91.45ZM115.359 113.05L119.033 109.659C118.988 109.61 118.942 109.562 118.895 109.514L115.359 113.05ZM112.959 105.4L107.982 104.926C107.981 104.933 107.981 104.94 107.98 104.947L112.959 105.4ZM115.059 95.95L119.732 97.73C119.757 97.6642 119.781 97.5979 119.803 97.5311L115.059 95.95ZM119.409 85.9L123.882 88.1361C123.891 88.1179 123.9 88.0997 123.908 88.0814L119.409 85.9ZM133.809 56.2V51.2C131.894 51.2 130.146 52.2947 129.31 54.0186L133.809 56.2ZM141.159 34.15L136.336 32.8344C136.331 32.8522 136.326 32.87 136.321 32.8879L141.159 34.15ZM147.009 25.45L150.133 29.3543L150.133 29.3543L147.009 25.45ZM164.709 25.3L168.709 22.3L168.709 22.3L164.709 25.3ZM166.059 34.15L161.221 32.8879C161.217 32.9043 161.213 32.9208 161.209 32.9373L166.059 34.15ZM160.059 43L163.183 46.9043L163.183 46.9043L160.059 43ZM149.53 54.0816L136.48 81.9816L145.538 86.2184L158.588 58.3184L149.53 54.0816ZM136.47 82.0047C135.11 84.9506 134.025 87.3893 133.253 89.2699C132.868 90.208 132.54 91.0565 132.29 91.7878C132.071 92.4311 131.803 93.2897 131.698 94.1298L141.621 95.3702C141.591 95.6103 141.566 95.5689 141.755 95.0168C141.913 94.5528 142.157 93.9107 142.504 93.0676C143.194 91.3857 144.209 89.0994 145.549 86.1953L136.47 82.0047ZM131.828 93.4617C131.418 95.001 131.02 97.617 132.571 99.9839C134.28 102.593 137.071 103.05 138.759 103.05V93.05C138.498 93.05 139.938 92.9819 140.935 94.5036C141.367 95.1627 141.446 95.758 141.456 96.0173C141.466 96.2537 141.424 96.2875 141.491 96.0383L131.828 93.4617ZM138.759 103.05C142.003 103.05 144.68 101.352 146.708 99.4207C148.774 97.4531 150.703 94.7441 152.544 91.5424L143.875 86.5576C142.266 89.3559 140.895 91.1469 139.811 92.1793C138.689 93.2479 138.366 93.05 138.759 93.05V103.05ZM143.528 87.2944L142.628 89.6944L151.991 93.2056L152.891 90.8056L143.528 87.2944ZM142.673 89.5784C139.493 97.4568 136.184 102.92 132.9 106.346C129.695 109.69 126.726 110.9 123.909 110.9V120.9C130.093 120.9 135.524 118.06 140.119 113.266C144.635 108.555 148.526 101.793 151.946 93.3216L142.673 89.5784ZM123.909 110.9C120.641 110.9 119.47 110.131 119.033 109.659L111.685 116.441C114.849 119.869 119.378 120.9 123.909 120.9V110.9ZM118.895 109.514C118.317 108.937 117.749 107.937 117.939 105.853L107.98 104.947C107.569 109.463 108.802 113.563 111.824 116.586L118.895 109.514ZM117.937 105.874C118.207 103.04 118.733 100.353 119.732 97.73L110.387 94.17C108.986 97.8473 108.312 101.46 107.982 104.926L117.937 105.874ZM119.803 97.5311C120.741 94.7159 122.118 91.6631 123.882 88.1361L114.937 83.6639C113.101 87.3369 111.478 90.8841 110.316 94.3689L119.803 97.5311ZM123.908 88.0814L138.308 58.3814L129.31 54.0186L114.91 83.7186L123.908 88.0814ZM133.809 61.2H154.059V51.2H133.809V61.2ZM145.983 35.4656C146.592 33.2326 147.921 31.1235 150.133 29.3543L143.886 21.5457C140.097 24.5765 137.527 28.4674 136.336 32.8344L145.983 35.4656ZM150.133 29.3543C152.427 27.5192 154.656 26.7 156.909 26.7V16.7C151.963 16.7 147.592 18.5808 143.886 21.5457L150.133 29.3543ZM156.909 26.7C158.904 26.7 160.004 27.3597 160.709 28.3L168.709 22.3C165.815 18.4403 161.514 16.7 156.909 16.7V26.7ZM160.709 28.3C161.411 29.2358 161.821 30.5873 161.221 32.8879L170.897 35.4121C172.097 30.8127 171.608 26.1642 168.709 22.3L160.709 28.3ZM161.209 32.9373C160.631 35.2485 159.283 37.2177 156.936 39.0957L163.183 46.9043C166.835 43.9823 169.688 40.2514 170.91 35.3627L161.209 32.9373ZM156.936 39.0957C154.716 40.8718 152.494 41.6 150.459 41.6V51.6C155.024 51.6 159.403 49.9282 163.183 46.9043L156.936 39.0957ZM150.459 41.6C148.164 41.6 147.215 40.9403 146.509 40L138.509 46C141.404 49.8597 145.555 51.6 150.459 51.6V41.6ZM146.509 40C145.808 39.0642 145.397 37.7127 145.997 35.4121L136.321 32.8879C135.121 37.4873 135.611 42.1358 138.509 46L146.509 40ZM227.896 22.6L232.42 24.7295C233.289 22.8819 232.948 20.691 231.558 19.1954C230.167 17.6999 228.007 17.2002 226.101 17.9333L227.896 22.6ZM198.946 84.1L194.422 81.9705C194.417 81.9819 194.411 81.9933 194.406 82.0047L198.946 84.1ZM194.596 94.75L199.427 96.0383C199.485 95.8188 199.529 95.5956 199.557 95.3702L194.596 94.75ZM206.146 89.05L210.878 90.6634C211.709 88.2265 210.554 85.5572 208.208 84.4952C205.863 83.4332 203.095 84.3257 201.811 86.5576L206.146 89.05ZM196.246 107.5L192.271 104.467L192.271 104.467L196.246 107.5ZM173.446 97.9L178.31 99.0554C178.897 96.5851 177.539 94.0673 175.153 93.2004C172.766 92.3336 170.109 93.393 168.974 95.6639L173.446 97.9ZM147.346 112.15L151.346 109.15C151.307 109.098 151.267 109.047 151.226 108.997L147.346 112.15ZM150.046 82.3L154.535 84.5008C154.547 84.4769 154.558 84.453 154.57 84.429L150.046 82.3ZM164.446 62.65L167.791 66.3665L167.791 66.3665L164.446 62.65ZM189.796 63.85L184.797 63.7281C184.764 65.0749 185.276 66.378 186.217 67.3422C187.158 68.3063 188.448 68.85 189.796 68.85V63.85ZM190.846 63.85V68.85C192.823 68.85 194.614 67.6849 195.416 65.8775L190.846 63.85ZM208.546 23.95L210.449 19.3266C207.944 18.2951 205.074 19.4462 203.975 21.9225L208.546 23.95ZM177.946 84.4L182.399 86.6739C182.405 86.6613 182.412 86.6487 182.418 86.6361L177.946 84.4ZM180.496 79.3L184.968 81.5361C185.046 81.3797 185.116 81.2193 185.177 81.0556L180.496 79.3ZM181.846 76.15L186.318 78.3861C186.424 78.1745 186.514 77.9556 186.589 77.7311L181.846 76.15ZM183.196 72.25L178.497 70.5413L178.497 70.5413L183.196 72.25ZM173.896 77.35L169.503 74.9624C169.499 74.9681 169.496 74.9738 169.493 74.9795L173.896 77.35ZM168.646 93.55L163.743 94.5306C163.783 94.7339 163.837 94.9345 163.902 95.1311L168.646 93.55ZM223.372 20.4705L194.422 81.9705L203.47 86.2295L232.42 24.7295L223.372 20.4705ZM194.406 82.0047C193.046 84.9506 191.961 87.3893 191.189 89.2699C190.804 90.208 190.476 91.0565 190.227 91.7878C190.007 92.4311 189.739 93.2897 189.634 94.1298L199.557 95.3702C199.527 95.6103 199.503 95.5689 199.691 95.0168C199.849 94.5528 200.094 93.9107 200.44 93.0676C201.13 91.3857 202.145 89.0994 203.486 86.1953L194.406 82.0047ZM189.765 93.4617C189.354 95.001 188.956 97.617 190.507 99.9839C192.217 102.593 195.007 103.05 196.696 103.05V93.05C196.434 93.05 197.875 92.9819 198.872 94.5036C199.304 95.1627 199.382 95.758 199.393 96.0173C199.402 96.2537 199.36 96.2875 199.427 96.0383L189.765 93.4617ZM196.696 103.05C199.939 103.05 202.616 101.352 204.644 99.4207C206.71 97.4531 208.639 94.7441 210.48 91.5424L201.811 86.5576C200.202 89.3559 198.831 91.1469 197.747 92.1793C196.625 93.2479 196.303 93.05 196.696 93.05V103.05ZM201.413 87.4366C199.342 93.511 196.303 99.1836 192.271 104.467L200.22 110.533C204.889 104.416 208.449 97.789 210.878 90.6634L201.413 87.4366ZM192.271 104.467C188.556 109.335 185.087 110.9 181.846 110.9V120.9C189.104 120.9 195.236 117.065 200.22 110.533L192.271 104.467ZM181.846 110.9C180.314 110.9 179.429 110.624 178.945 110.365C178.532 110.144 178.219 109.842 177.954 109.278C177.291 107.864 176.953 104.772 178.31 99.0554L168.581 96.7446C167.089 103.028 166.75 108.936 168.9 113.522C170.042 115.958 171.838 117.906 174.233 119.185C176.556 120.426 179.177 120.9 181.846 120.9V110.9ZM168.974 95.6639C166.112 101.388 163.351 105.279 160.795 107.683C158.29 110.039 156.232 110.75 154.546 110.75V120.75C159.459 120.75 163.851 118.536 167.646 114.967C171.391 111.446 174.78 106.412 177.918 100.136L168.974 95.6639ZM154.546 110.75C153.119 110.75 152.201 110.291 151.346 109.15L143.346 115.15C146.09 118.809 149.972 120.75 154.546 120.75V110.75ZM151.226 108.997C150.148 107.669 149.496 105.859 149.496 103.3H139.496C139.496 107.641 140.644 111.831 143.465 115.303L151.226 108.997ZM149.496 103.3C149.496 97.9453 151.03 91.6508 154.535 84.5008L145.556 80.0992C141.561 88.2492 139.496 96.0547 139.496 103.3H149.496ZM154.57 84.429C157.908 77.335 162.322 71.288 167.791 66.3665L161.101 58.9335C154.569 64.812 149.383 71.965 145.522 80.171L154.57 84.429ZM167.791 66.3665C173.299 61.4088 177.855 59.55 181.696 59.55V49.55C174.437 49.55 167.592 53.0912 161.101 58.9335L167.791 66.3665ZM181.696 59.55C183.534 59.55 183.997 60.0444 184.106 60.1701C184.316 60.4115 184.857 61.2944 184.797 63.7281L194.794 63.9719C194.885 60.2556 194.151 56.4885 191.66 53.6174C189.069 50.6306 185.407 49.55 181.696 49.55V59.55ZM189.796 68.85H190.846V58.85H189.796V68.85ZM195.416 65.8775L213.116 25.9775L203.975 21.9225L186.275 61.8225L195.416 65.8775ZM206.642 28.5734C213.408 31.3595 221.298 30.4948 229.691 27.2667L226.101 17.9333C218.894 20.7052 213.883 20.7405 210.449 19.3266L206.642 28.5734ZM182.418 86.6361L184.968 81.5361L176.024 77.0639L173.474 82.1639L182.418 86.6361ZM185.177 81.0556C185.582 79.9775 185.964 79.0942 186.318 78.3861L177.374 73.9139C176.828 75.0058 176.31 76.2225 175.814 77.5444L185.177 81.0556ZM186.589 77.7311C186.887 76.8367 187.319 75.541 187.895 73.9587L178.497 70.5413C177.872 72.259 177.404 73.6633 177.102 74.5689L186.589 77.7311ZM187.895 73.9587C188.704 71.7321 188.946 69.8012 188.946 68.35H178.946C178.946 68.6988 178.887 69.4679 178.497 70.5413L187.895 73.9587ZM188.946 68.35C188.946 67.1179 188.643 65.6564 187.714 64.3563C186.731 62.98 185.042 61.85 182.896 61.85V71.85C181.35 71.85 180.185 71.02 179.577 70.1687C179.023 69.3936 178.946 68.6821 178.946 68.35H188.946ZM182.896 61.85C180.989 61.85 179.406 62.605 178.26 63.3829C177.1 64.1702 176.067 65.1952 175.151 66.2719C173.32 68.4233 171.439 71.3994 169.503 74.9624L178.289 79.7376C180.102 76.4006 181.597 74.1267 182.766 72.7531C183.35 72.0673 183.723 71.7611 183.875 71.6577C184.041 71.545 183.677 71.85 182.896 71.85V61.85ZM169.493 74.9795C167.31 79.0346 165.697 82.6315 164.708 85.7285C163.761 88.6925 163.192 91.7759 163.743 94.5306L173.549 92.5694C173.5 92.3241 173.455 91.2075 174.234 88.7715C174.969 86.4685 176.282 83.4654 178.298 79.7205L169.493 74.9795ZM163.902 95.1311C164.184 95.977 164.72 97.2066 165.836 98.2365C167.1 99.4041 168.653 99.9 170.146 99.9V89.9C170.463 89.9 170.892 89.9489 171.369 90.1251C171.856 90.3051 172.279 90.5754 172.618 90.8885C172.944 91.1891 173.14 91.4796 173.246 91.6664C173.35 91.8487 173.388 91.9669 173.389 91.9689L163.902 95.1311ZM170.146 99.9C172.26 99.9 173.845 98.8404 174.73 98.1129C175.701 97.3145 176.565 96.3039 177.33 95.273C178.873 93.1932 180.559 90.2758 182.399 86.6739L173.493 82.1261C171.732 85.5742 170.343 87.9068 169.299 89.3145C168.77 90.0273 168.462 90.3199 168.379 90.3887C168.209 90.5283 168.856 89.9 170.146 89.9V99.9ZM257.407 80.5L255.171 76.0279C254.263 76.4817 253.515 77.2011 253.026 78.0904L257.407 80.5ZM257.707 80.35L262.507 81.75C263.064 79.8417 262.437 77.7849 260.911 76.5112C259.385 75.2376 257.249 74.9889 255.471 75.8779L257.707 80.35ZM238.807 102.55L238.629 97.5532C237.163 97.6055 235.794 98.2989 234.884 99.4497L238.807 102.55ZM205.507 111.4L209.638 108.583C209.61 108.541 209.58 108.5 209.551 108.459L205.507 111.4ZM202.357 98.05L207.35 98.3128C207.35 98.3057 207.351 98.2987 207.351 98.2917L202.357 98.05ZM214.807 69.4L210.903 66.2765L210.903 66.2765L214.807 69.4ZM247.057 89.8L242.602 87.5304C241.779 89.1465 241.895 91.0818 242.906 92.5876C243.917 94.0933 245.665 94.9334 247.472 94.7827L247.057 89.8ZM230.707 97L233.831 100.904C235.404 99.6453 236.068 97.5643 235.515 95.6264L230.707 97ZM232.207 88L236.434 90.67C236.448 90.6492 236.461 90.6282 236.473 90.6072L232.207 88ZM241.057 82.9L241.936 87.8221C243.505 87.542 244.846 86.5306 245.547 85.0993L241.057 82.9ZM244.057 68.05L248.367 65.5149C248.246 65.3094 248.11 65.1127 247.961 64.9265L244.057 68.05ZM231.457 77.8L235.758 80.349C235.764 80.3391 235.77 80.3293 235.776 80.3194L231.457 77.8ZM224.407 96.1H229.407C229.407 96.0405 229.406 95.981 229.404 95.9215L224.407 96.1ZM259.643 84.9721L259.943 84.8221L255.471 75.8779L255.171 76.0279L259.643 84.9721ZM252.907 78.95C248.773 93.1243 243.434 97.3816 238.629 97.5532L238.985 107.547C250.98 107.118 258.241 96.3757 262.507 81.75L252.907 78.95ZM234.884 99.4497C227.945 108.23 221.881 111.35 216.757 111.35V121.35C226.333 121.35 234.969 115.47 242.73 105.65L234.884 99.4497ZM216.757 111.35C212.584 111.35 210.673 110.101 209.638 108.583L201.376 114.217C204.841 119.299 210.43 121.35 216.757 121.35V111.35ZM209.551 108.459C208.037 106.377 207.088 103.287 207.35 98.3128L197.364 97.7872C197.026 104.213 198.177 109.823 201.463 114.341L209.551 108.459ZM207.351 98.2917C207.735 90.36 211.338 81.7399 218.711 72.5235L210.903 66.2765C202.676 76.5601 197.879 87.14 197.363 97.8083L207.351 98.2917ZM218.711 72.5235C225.85 63.5999 233.383 59.7 241.357 59.7V49.7C229.531 49.7 219.364 55.7001 210.903 66.2765L218.711 72.5235ZM241.357 59.7C243.533 59.7 244.941 60.4346 246.047 61.7785L253.767 55.4215C250.673 51.6654 246.381 49.7 241.357 49.7V59.7ZM246.047 61.7785C247.355 63.3667 248.207 65.5203 248.207 68.35H258.207C258.207 63.3797 256.659 58.9333 253.767 55.4215L246.047 61.7785ZM248.207 68.35C248.207 73.5827 246.446 79.9843 242.602 87.5304L251.512 92.0696C255.768 83.7157 258.207 75.7173 258.207 68.35H248.207ZM247.472 94.7827C253.724 94.2618 258.313 89.2276 261.788 82.9096L253.026 78.0904C249.901 83.7724 247.59 84.7382 246.642 84.8173L247.472 94.7827ZM226.357 103.8C229.182 103.8 231.752 102.567 233.831 100.904L227.584 93.0957C226.662 93.8325 226.232 93.8 226.357 93.8V103.8ZM235.515 95.6264C235.065 94.0538 235.271 92.5125 236.434 90.67L227.98 85.33C225.543 89.1875 224.549 93.6462 225.899 98.3736L235.515 95.6264ZM236.473 90.6072C237.095 89.5907 238.504 88.435 241.936 87.8221L240.178 77.9779C235.21 78.865 230.619 81.0093 227.941 85.3927L236.473 90.6072ZM245.547 85.0993C247.446 81.2235 248.771 77.711 249.375 74.6413C249.954 71.7015 250.034 68.3492 248.367 65.5149L239.747 70.5851C239.58 70.3008 239.96 70.6985 239.564 72.7087C239.193 74.589 238.268 77.2264 236.567 80.7007L245.547 85.0993ZM247.961 64.9265C246.68 63.3249 244.608 61.85 241.807 61.85V71.85C241.386 71.85 240.972 71.7355 240.635 71.5498C240.324 71.3788 240.177 71.204 240.153 71.1735L247.961 64.9265ZM241.807 61.85C238.253 61.85 235.448 64.1801 233.549 66.2028C231.448 68.4406 229.315 71.5487 227.138 75.2806L235.776 80.3194C237.799 76.8513 239.491 74.4844 240.84 73.0472C242.391 71.3949 242.661 71.85 241.807 71.85V61.85ZM227.156 75.251C224.68 79.4279 222.733 83.2124 221.416 86.6003C220.117 89.9395 219.301 93.2158 219.41 96.2785L229.404 95.9215C229.363 94.7842 229.672 92.9605 230.736 90.2247C231.781 87.5376 233.434 84.2721 235.758 80.349L227.156 75.251ZM219.407 96.1C219.407 97.3808 219.587 99.3092 220.796 101.015C222.252 103.071 224.441 103.8 226.357 103.8V93.8C226.567 93.8 227.017 93.8349 227.562 94.0839C228.142 94.349 228.622 94.7632 228.956 95.2349C229.527 96.0408 229.407 96.6192 229.407 96.1H219.407Z" fill="url(#paint1_linear_4_6)" mask="url(#path-1-outside-1_4_6)"/>
<path d="M91.8 99.55L96.5929 100.974C96.6014 100.945 96.6096 100.917 96.6176 100.888L91.8 99.55ZM67.5 144.4L70.8388 148.122C70.8479 148.114 70.857 148.105 70.8661 148.097L67.5 144.4ZM34.2 157.3L34.4497 152.306C34.4071 152.304 34.3645 152.303 34.3219 152.301L34.2 157.3ZM18.6 151L22.0707 147.401C22.0497 147.381 22.0285 147.36 22.0071 147.341L18.6 151ZM12.75 134.95L17.7384 135.29C17.7407 135.256 17.7427 135.222 17.7443 135.188L12.75 134.95ZM22.8 120.4L25.12 124.829L25.12 124.829L22.8 120.4ZM39.45 121.15L41.6861 125.622C43.2052 124.863 44.2348 123.384 44.4201 121.696C44.6055 120.007 43.9211 118.34 42.603 117.269L39.45 121.15ZM37.05 127.45L33.5145 130.986L33.5145 130.986L37.05 127.45ZM40.5 128.95L41.1202 123.989C40.9145 123.963 40.7073 123.95 40.5 123.95L40.5 128.95ZM48.45 127.3L46.593 122.658C46.5275 122.684 46.4625 122.711 46.3982 122.74L48.45 127.3ZM58.65 120.4L61.8797 124.217L61.8797 124.217L58.65 120.4ZM71.1 104.8L75.34 107.45L75.34 107.45L71.1 104.8ZM84.15 78.7L88.7734 80.6037C89.4085 79.0613 89.2326 77.3038 88.3044 75.9178C87.3763 74.5318 85.8181 73.7 84.15 73.7V78.7ZM83.7 78.4L87.2356 74.8645C86.1026 73.7315 84.4953 73.2101 82.913 73.4623C81.3307 73.7145 79.9651 74.7098 79.2405 76.1388L83.7 78.4ZM64.65 105.55L68.2211 109.05C68.2331 109.037 68.245 109.025 68.2569 109.013L64.65 105.55ZM34.2 112.45L37.7355 108.914L37.7355 108.914L34.2 112.45ZM33.15 89.5L37.6221 91.7361L37.6221 91.7361L33.15 89.5ZM40.8 76.9L36.7711 73.939C36.7577 73.9572 36.7445 73.9754 36.7313 73.9938L40.8 76.9ZM49.95 64.45L53.9789 67.411C53.9923 67.3928 54.0055 67.3746 54.0187 67.3562L49.95 64.45ZM42.9 28L39.7765 24.0956L39.7765 24.0957L42.9 28ZM41.85 35.65L45.6911 32.4491C45.5944 32.333 45.4924 32.2213 45.3855 32.1145L41.85 35.65ZM48.9 34.3L51.55 30.06C50.1932 29.212 48.5124 29.0645 47.0287 29.6634C45.5449 30.2622 44.4374 31.535 44.0493 33.0873L48.9 34.3ZM48.15 58L51.5523 61.664C51.5744 61.6434 51.5964 61.6226 51.6182 61.6016L48.15 58ZM16.5 56.8L20.3215 53.5756C20.3046 53.5557 20.2876 53.5358 20.2704 53.5161L16.5 56.8ZM72.75 17.5L69.3384 21.1553L69.3384 21.1553L72.75 17.5ZM77.1 57.25L72.7472 54.7897L72.7472 54.7897L77.1 57.25ZM65.4 76.45L61.2398 73.6765C61.229 73.6926 61.2183 73.7088 61.2078 73.7251L65.4 76.45ZM60.45 91L63.9856 87.4645L63.9855 87.4645L60.45 91ZM75.3 82.6L79.0572 85.899C79.0725 85.8815 79.0877 85.864 79.1028 85.8463L75.3 82.6ZM89.1 61.9L93.5545 64.1709C93.6634 63.9574 93.7567 63.7364 93.8339 63.5095L89.1 61.9ZM97.95 42.4L102.216 45.0072L102.216 45.0072L97.95 42.4ZM108.15 30.4L111.232 34.3375C111.26 34.3153 111.288 34.2927 111.316 34.2698L108.15 30.4ZM117.6 24.7L115.948 19.9807C115.879 20.0048 115.811 20.0305 115.743 20.0576L117.6 24.7ZM135.75 26.65L139.398 23.2303C139.361 23.1911 139.324 23.1525 139.286 23.1145L135.75 26.65ZM139.05 35.2L144.029 35.6527C144.043 35.5022 144.05 35.3511 144.05 35.2H139.05ZM135.15 44.35L131.325 41.1293C131.298 41.1614 131.272 41.1938 131.246 41.2265L135.15 44.35ZM124.95 51.1L120.354 49.1304C119.579 50.9402 119.937 53.0366 121.271 54.4855C122.604 55.9345 124.663 56.4661 126.531 55.8434L124.95 51.1ZM124.2 45.85L127.916 42.5052L127.916 42.5052L124.2 45.85ZM110.1 47.95L106.745 44.2423L106.745 44.2423L110.1 47.95ZM102 60.25L97.3846 58.3269C97.3819 58.3334 97.3793 58.3398 97.3766 58.3462L102 60.25ZM95.85 81.55L90.9598 80.5078C90.9587 80.5132 90.9575 80.5186 90.9564 80.5239L95.85 81.55ZM87.0071 98.126C80.9753 118.428 73.219 132.431 64.1339 140.703L70.8661 148.097C81.881 138.069 90.3247 122.072 96.5929 100.974L87.0071 98.126ZM64.1612 140.678C54.7763 149.097 44.9248 152.83 34.4497 152.306L33.9503 162.294C47.4752 162.97 59.8237 158.003 70.8388 148.122L64.1612 140.678ZM34.3219 152.301C29.3309 152.18 25.3042 150.519 22.0707 147.401L15.1293 154.599C20.2958 159.581 26.7692 162.12 34.0781 162.299L34.3219 152.301ZM22.0071 147.341C18.9055 144.453 17.3766 140.597 17.7384 135.29L7.76158 134.61C7.22342 142.503 9.59451 149.447 15.1929 154.659L22.0071 147.341ZM17.7443 135.188C17.9466 130.94 20.1278 127.444 25.12 124.829L20.48 115.971C12.8722 119.956 8.15337 126.36 7.75566 134.712L17.7443 135.188ZM25.12 124.829C27.7273 123.463 29.8166 123.003 31.485 123.071C33.081 123.136 34.6524 123.694 36.297 125.031L42.603 117.269C39.4476 114.706 35.844 113.239 31.89 113.079C28.0084 112.922 24.1727 114.037 20.48 115.971L25.12 124.829ZM37.2139 116.678C35.2181 117.676 32.3215 119.449 31.4493 122.937L41.1507 125.363C41.0915 125.6 40.9964 125.808 40.8931 125.972C40.795 126.127 40.7158 126.201 40.7148 126.201C40.7143 126.202 40.7309 126.186 40.7703 126.157C40.8097 126.126 40.8681 126.085 40.95 126.032C41.1174 125.924 41.355 125.788 41.6861 125.622L37.2139 116.678ZM31.4493 122.937C30.8672 125.266 31.0038 128.475 33.5145 130.986L40.5855 123.914C40.8636 124.193 41.0553 124.569 41.1279 124.932C41.1908 125.246 41.1388 125.411 41.1507 125.363L31.4493 122.937ZM33.5145 130.986C35.1162 132.587 37.3738 133.95 40.5 133.95V123.95C40.4795 123.95 40.4724 123.949 40.4771 123.949C40.4819 123.95 40.4957 123.952 40.5168 123.956C40.538 123.961 40.5628 123.968 40.5898 123.977C40.6167 123.986 40.6419 123.996 40.6644 124.007C40.7112 124.028 40.7311 124.044 40.7212 124.037C40.7089 124.028 40.6644 123.993 40.5855 123.914L33.5145 130.986ZM39.8798 133.911C43.5683 134.372 47.0982 133.391 50.5018 131.86L46.3982 122.74C43.8018 123.909 42.2317 124.128 41.1202 123.989L39.8798 133.911ZM50.307 131.942C54.1196 130.417 57.9489 127.543 61.8797 124.217L55.4203 116.583C51.5511 119.857 48.7804 121.783 46.593 122.658L50.307 131.942ZM61.8797 124.217C66.3567 120.429 70.7297 114.827 75.34 107.45L66.86 102.15C62.4703 109.173 58.7433 113.771 55.4203 116.583L61.8797 124.217ZM75.34 107.45C80.0248 99.9543 84.4965 90.9906 88.7734 80.6037L79.5266 76.7962C75.4036 86.8094 71.1752 95.2457 66.86 102.15L75.34 107.45ZM84.15 73.7C85.7065 73.7 86.7127 74.447 86.925 74.6062C87.1898 74.8049 87.3759 75.0048 87.2356 74.8645L80.1644 81.9355C80.1741 81.9451 80.5102 82.2951 80.925 82.6062C81.2873 82.878 82.4435 83.7 84.15 83.7V73.7ZM79.2405 76.1388C74.0552 86.3654 67.8882 94.957 61.0431 102.087L68.2569 109.013C75.8118 101.143 82.5448 91.7346 88.1595 80.6612L79.2405 76.1388ZM61.0789 102.05C53.9264 109.349 48.8754 111.65 45.6 111.65V121.65C53.1246 121.65 60.6736 116.751 68.2211 109.05L61.0789 102.05ZM45.6 111.65C41.8113 111.65 39.4466 110.625 37.7355 108.914L30.6645 115.986C34.6534 119.975 39.7887 121.65 45.6 121.65V111.65ZM37.7355 108.914C36.0531 107.232 35 104.739 35 100.9H25C25 106.661 26.6469 111.968 30.6645 115.986L37.7355 108.914ZM35 100.9C35 98.6045 35.7503 95.4797 37.6221 91.7361L28.6779 87.2639C26.3497 91.9203 25 96.5955 25 100.9H35ZM37.6221 91.7361C39.5945 87.7913 42.0057 83.8143 44.8687 79.8062L36.7313 73.9938C33.5943 78.3857 30.9055 82.8087 28.6779 87.2639L37.6221 91.7361ZM44.8289 79.861L53.9789 67.411L45.9211 61.489L36.7711 73.939L44.8289 79.861ZM54.0187 67.3562C57.0997 63.0427 59.9961 58.5606 62.2809 53.6644L53.2191 49.4356C51.3039 53.5394 48.8003 57.4573 45.8813 61.5438L54.0187 67.3562ZM62.2809 53.6644C64.5797 48.7386 65.9 43.9528 65.9 39.4H55.9C55.9 42.0472 55.1203 45.3614 53.2191 49.4356L62.2809 53.6644ZM65.9 39.4C65.9 35.0521 64.4264 31.0319 61.7753 27.434L53.7247 33.366C55.2737 35.4681 55.9 37.4479 55.9 39.4H65.9ZM61.7753 27.434C58.8629 23.4814 54.7458 21.05 49.65 21.05V31.05C51.1542 31.05 52.4371 31.6186 53.7247 33.366L61.7753 27.434ZM49.65 21.05C45.8601 21.05 42.3997 21.9971 39.7765 24.0956L46.0235 31.9043C46.4003 31.6029 47.4399 31.05 49.65 31.05V21.05ZM39.7765 24.0957C37.1821 26.1712 35.65 29.0674 35.65 32.5H45.65C45.65 32.3992 45.6603 32.3409 45.6663 32.3143C45.672 32.2891 45.678 32.2744 45.6846 32.2611C45.6922 32.246 45.7564 32.118 46.0235 31.9043L39.7765 24.0957ZM35.65 32.5C35.65 34.6463 36.2386 37.1097 38.3145 39.1855L45.3855 32.1145C45.4087 32.1377 45.4542 32.1886 45.5045 32.2677C45.555 32.3474 45.5942 32.4301 45.6212 32.5058C45.6746 32.6553 45.65 32.6899 45.65 32.5H35.65ZM38.0089 38.8509C40.0662 41.3197 42.8333 41.85 44.85 41.85V31.85C44.6443 31.85 44.7084 31.8212 44.9178 31.8988C45.0303 31.9404 45.1709 32.0078 45.3192 32.1109C45.4691 32.215 45.5944 32.333 45.6911 32.4491L38.0089 38.8509ZM44.85 41.85C46.4445 41.85 48.3857 41.599 50.1573 40.5164C52.1054 39.3259 53.254 37.4994 53.7507 35.5127L44.0493 33.0873C44.0603 33.0434 44.1165 32.8508 44.2892 32.6025C44.4702 32.3423 44.7041 32.1295 44.9427 31.9836C45.1648 31.8479 45.3127 31.8175 45.3003 31.8202C45.2816 31.8243 45.146 31.85 44.85 31.85V41.85ZM46.25 38.54C48.3447 39.8492 49.3 41.5222 49.3 44.2H59.3C59.3 38.1778 56.6553 33.2508 51.55 30.06L46.25 38.54ZM49.3 44.2C49.3 47.9611 47.8509 51.3467 44.6818 54.3984L51.6182 61.6016C56.5491 56.8533 59.3 50.9389 59.3 44.2H49.3ZM44.7477 54.336C41.5439 57.311 37.6887 58.85 32.55 58.85V68.85C40.0113 68.85 46.3561 66.489 51.5523 61.664L44.7477 54.336ZM32.55 58.85C27.2278 58.85 23.3022 57.1084 20.3215 53.5756L12.6785 60.0244C17.7978 66.0916 24.6722 68.85 32.55 68.85V58.85ZM20.2704 53.5161C17.1165 49.8949 15.5 45.4098 15.5 39.7H5.5C5.5 47.4902 7.78354 54.4051 12.7296 60.0839L20.2704 53.5161ZM15.5 39.7C15.5 32.6287 18.1565 26.5538 23.8524 21.1168L16.9476 13.8832C9.44352 21.0462 5.5 29.6713 5.5 39.7H15.5ZM23.8524 21.1168C29.3546 15.8646 36.7338 13.05 46.5 13.05V3.04999C34.6662 3.04999 24.6454 6.53538 16.9476 13.8832L23.8524 21.1168ZM46.5 13.05C56.2525 13.05 63.6628 15.858 69.3384 21.1553L76.1616 13.8447C68.3372 6.54198 58.3476 3.04999 46.5 3.04999V13.05ZM69.3384 21.1553C75.2214 26.6461 77.95 32.724 77.95 39.4H87.95C87.95 29.576 83.7786 20.9539 76.1616 13.8447L69.3384 21.1553ZM77.95 39.4C77.95 43.1277 76.4448 48.2478 72.7472 54.7897L81.4528 59.7103C85.5552 52.4522 87.95 45.5723 87.95 39.4H77.95ZM72.7472 54.7897C68.8907 61.6127 65.0551 67.9535 61.2398 73.6765L69.5603 79.2235C73.5449 73.2465 77.5093 66.6873 81.4528 59.7103L72.7472 54.7897ZM61.2078 73.7251C59.2029 76.8094 57.6046 79.5347 56.4921 81.8881C55.442 84.1096 54.55 86.5521 54.55 88.9H64.55C64.55 88.9436 64.5472 88.747 64.704 88.2252C64.8555 87.7213 65.1165 87.0426 65.5329 86.1619C66.3704 84.3903 67.6971 82.0906 69.5922 79.1749L61.2078 73.7251ZM54.55 88.9C54.55 89.9334 54.7281 91.0181 55.2059 92.0932C55.6741 93.1465 56.3193 93.9404 56.9145 94.5355L63.9855 87.4645C63.9807 87.4596 64.1759 87.6535 64.3441 88.0318C64.5219 88.4318 64.55 88.7666 64.55 88.9H54.55ZM56.9145 94.5355C58.9048 96.5258 61.2924 96.75 62.7 96.75V86.75C62.4928 86.75 62.6213 86.7275 62.8992 86.8109C63.0526 86.8569 63.2431 86.9322 63.4475 87.0514C63.654 87.1719 63.8354 87.3143 63.9856 87.4645L56.9145 94.5355ZM62.7 96.75C65.7635 96.75 68.6153 95.2791 71.0301 93.5327C73.5506 91.7099 76.2293 89.1196 79.0572 85.899L71.5428 79.301C68.9707 82.2304 66.8494 84.2151 65.1699 85.4298C63.3847 86.7209 62.6366 86.75 62.7 86.75V96.75ZM79.1028 85.8463C84.6066 79.399 89.4757 72.1718 93.5545 64.1709L84.6455 59.6291C80.9244 66.9282 76.4934 73.501 71.4972 79.3537L79.1028 85.8463ZM93.8339 63.5095C96.2925 56.2783 99.1481 50.0282 102.216 45.0072L93.6836 39.7927C90.152 45.5718 87.0075 52.5217 84.3661 60.2905L93.8339 63.5095ZM102.216 45.0072C105.272 40.0072 108.345 36.5963 111.232 34.3375L105.068 26.4625C101.055 29.6037 97.228 33.9928 93.6836 39.7928L102.216 45.0072ZM111.316 34.2698C114.242 31.8761 116.954 30.3437 119.457 29.3424L115.743 20.0576C112.246 21.4563 108.658 23.5239 104.984 26.5302L111.316 34.2698ZM119.252 29.4193C121.885 28.4976 124.164 28.05 126.3 28.05V18.05C122.736 18.05 119.315 18.8024 115.948 19.9807L119.252 29.4193ZM126.3 28.05C129.088 28.05 130.894 28.8647 132.214 30.1855L139.286 23.1145C135.806 19.6353 131.312 18.05 126.3 18.05V28.05ZM132.102 30.0697C133.425 31.4809 134.05 33.0826 134.05 35.2H144.05C144.05 30.7174 142.575 26.6191 139.398 23.2303L132.102 30.0697ZM134.071 34.7473C133.865 37.0133 133.076 39.0506 131.325 41.1293L138.975 47.5707C142.024 43.9494 143.635 39.9866 144.029 35.6527L134.071 34.7473ZM131.246 41.2265C129.535 43.3645 127.097 45.1138 123.369 46.3566L126.531 55.8434C131.803 54.0862 135.965 51.3355 139.054 47.4735L131.246 41.2265ZM129.546 53.0696C130.262 51.3991 130.668 49.5073 130.362 47.4978C130.053 45.467 129.092 43.8119 127.916 42.5052L120.484 49.1948C120.579 49.3008 120.586 49.3322 120.562 49.2857C120.55 49.2621 120.533 49.2236 120.516 49.1715C120.499 49.119 120.485 49.0615 120.476 49.0022C120.467 48.943 120.464 48.8921 120.465 48.8531C120.465 48.8147 120.468 48.7954 120.468 48.7985C120.466 48.8071 120.448 48.9125 120.354 49.1304L129.546 53.0696ZM127.916 42.5052C125.7 40.042 122.735 38.6 119.4 38.6V48.6C119.665 48.6 120 48.658 120.484 49.1948L127.916 42.5052ZM119.4 38.6C114.697 38.6 110.401 40.935 106.745 44.2423L113.455 51.6577C116.099 49.265 118.103 48.6 119.4 48.6V38.6ZM106.745 44.2423C102.901 47.7204 99.8302 52.4576 97.3846 58.3269L106.615 62.1731C108.67 57.2423 110.999 53.8796 113.455 51.6577L106.745 44.2423ZM97.3766 58.3462C95.1224 63.8207 92.9465 71.1857 90.9598 80.5078L100.74 82.5922C102.654 73.6142 104.678 66.8793 106.623 62.1537L97.3766 58.3462ZM90.9564 80.5239C88.9979 89.8644 87.681 95.6968 86.9824 98.2118L96.6176 100.888C97.419 98.0032 98.8021 91.8356 100.744 82.5761L90.9564 80.5239ZM154.059 56.2L158.588 58.3184C159.313 56.7698 159.196 54.9584 158.278 53.516C157.36 52.0735 155.769 51.2 154.059 51.2V56.2ZM141.009 84.1L136.48 81.9816C136.477 81.9893 136.473 81.997 136.47 82.0047L141.009 84.1ZM136.659 94.75L141.491 96.0383C141.549 95.8188 141.593 95.5956 141.621 95.3702L136.659 94.75ZM148.209 89.05L152.891 90.8056C153.805 88.3679 152.696 85.6365 150.34 84.5269C147.985 83.4172 145.173 84.3006 143.875 86.5576L148.209 89.05ZM147.309 91.45L151.946 93.3216C151.961 93.2831 151.976 93.2445 151.991 93.2056L147.309 91.45ZM115.359 113.05L119.033 109.659C118.988 109.61 118.942 109.562 118.895 109.514L115.359 113.05ZM112.959 105.4L107.982 104.926C107.981 104.933 107.981 104.94 107.98 104.947L112.959 105.4ZM115.059 95.95L119.732 97.73C119.757 97.6642 119.781 97.5979 119.803 97.5311L115.059 95.95ZM119.409 85.9L123.882 88.1361C123.891 88.1179 123.9 88.0997 123.908 88.0814L119.409 85.9ZM133.809 56.2V51.2C131.894 51.2 130.146 52.2947 129.31 54.0186L133.809 56.2ZM141.159 34.15L136.336 32.8344C136.331 32.8522 136.326 32.87 136.321 32.8879L141.159 34.15ZM147.009 25.45L150.133 29.3543L150.133 29.3543L147.009 25.45ZM164.709 25.3L168.709 22.3L168.709 22.3L164.709 25.3ZM166.059 34.15L161.221 32.8879C161.217 32.9043 161.213 32.9208 161.209 32.9373L166.059 34.15ZM160.059 43L163.183 46.9043L163.183 46.9043L160.059 43ZM149.53 54.0816L136.48 81.9816L145.538 86.2184L158.588 58.3184L149.53 54.0816ZM136.47 82.0047C135.11 84.9506 134.025 87.3893 133.253 89.2699C132.868 90.208 132.54 91.0565 132.29 91.7878C132.071 92.4311 131.803 93.2897 131.698 94.1298L141.621 95.3702C141.591 95.6103 141.566 95.5689 141.755 95.0168C141.913 94.5528 142.157 93.9107 142.504 93.0676C143.194 91.3857 144.209 89.0994 145.549 86.1953L136.47 82.0047ZM131.828 93.4617C131.418 95.001 131.02 97.617 132.571 99.9839C134.28 102.593 137.071 103.05 138.759 103.05V93.05C138.498 93.05 139.938 92.9819 140.935 94.5036C141.367 95.1627 141.446 95.758 141.456 96.0173C141.466 96.2537 141.424 96.2875 141.491 96.0383L131.828 93.4617ZM138.759 103.05C142.003 103.05 144.68 101.352 146.708 99.4207C148.774 97.4531 150.703 94.7441 152.544 91.5424L143.875 86.5576C142.266 89.3559 140.895 91.1469 139.811 92.1793C138.689 93.2479 138.366 93.05 138.759 93.05V103.05ZM143.528 87.2944L142.628 89.6944L151.991 93.2056L152.891 90.8056L143.528 87.2944ZM142.673 89.5784C139.493 97.4568 136.184 102.92 132.9 106.346C129.695 109.69 126.726 110.9 123.909 110.9V120.9C130.093 120.9 135.524 118.06 140.119 113.266C144.635 108.555 148.526 101.793 151.946 93.3216L142.673 89.5784ZM123.909 110.9C120.641 110.9 119.47 110.131 119.033 109.659L111.685 116.441C114.849 119.869 119.378 120.9 123.909 120.9V110.9ZM118.895 109.514C118.317 108.937 117.749 107.937 117.939 105.853L107.98 104.947C107.569 109.463 108.802 113.563 111.824 116.586L118.895 109.514ZM117.937 105.874C118.207 103.04 118.733 100.353 119.732 97.73L110.387 94.17C108.986 97.8473 108.312 101.46 107.982 104.926L117.937 105.874ZM119.803 97.5311C120.741 94.7159 122.118 91.6631 123.882 88.1361L114.937 83.6639C113.101 87.3369 111.478 90.8841 110.316 94.3689L119.803 97.5311ZM123.908 88.0814L138.308 58.3814L129.31 54.0186L114.91 83.7186L123.908 88.0814ZM133.809 61.2H154.059V51.2H133.809V61.2ZM145.983 35.4656C146.592 33.2326 147.921 31.1235 150.133 29.3543L143.886 21.5457C140.097 24.5765 137.527 28.4674 136.336 32.8344L145.983 35.4656ZM150.133 29.3543C152.427 27.5192 154.656 26.7 156.909 26.7V16.7C151.963 16.7 147.592 18.5808 143.886 21.5457L150.133 29.3543ZM156.909 26.7C158.904 26.7 160.004 27.3597 160.709 28.3L168.709 22.3C165.815 18.4403 161.514 16.7 156.909 16.7V26.7ZM160.709 28.3C161.411 29.2358 161.821 30.5873 161.221 32.8879L170.897 35.4121C172.097 30.8127 171.608 26.1642 168.709 22.3L160.709 28.3ZM161.209 32.9373C160.631 35.2485 159.283 37.2177 156.936 39.0957L163.183 46.9043C166.835 43.9823 169.688 40.2514 170.91 35.3627L161.209 32.9373ZM156.936 39.0957C154.716 40.8718 152.494 41.6 150.459 41.6V51.6C155.024 51.6 159.403 49.9282 163.183 46.9043L156.936 39.0957ZM150.459 41.6C148.164 41.6 147.215 40.9403 146.509 40L138.509 46C141.404 49.8597 145.555 51.6 150.459 51.6V41.6ZM146.509 40C145.808 39.0642 145.397 37.7127 145.997 35.4121L136.321 32.8879C135.121 37.4873 135.611 42.1358 138.509 46L146.509 40ZM227.896 22.6L232.42 24.7295C233.289 22.8819 232.948 20.691 231.558 19.1954C230.167 17.6999 228.007 17.2002 226.101 17.9333L227.896 22.6ZM198.946 84.1L194.422 81.9705C194.417 81.9819 194.411 81.9933 194.406 82.0047L198.946 84.1ZM194.596 94.75L199.427 96.0383C199.485 95.8188 199.529 95.5956 199.557 95.3702L194.596 94.75ZM206.146 89.05L210.878 90.6634C211.709 88.2265 210.554 85.5572 208.208 84.4952C205.863 83.4332 203.095 84.3257 201.811 86.5576L206.146 89.05ZM196.246 107.5L192.271 104.467L192.271 104.467L196.246 107.5ZM173.446 97.9L178.31 99.0554C178.897 96.5851 177.539 94.0673 175.153 93.2004C172.766 92.3336 170.109 93.393 168.974 95.6639L173.446 97.9ZM147.346 112.15L151.346 109.15C151.307 109.098 151.267 109.047 151.226 108.997L147.346 112.15ZM150.046 82.3L154.535 84.5008C154.547 84.4769 154.558 84.453 154.57 84.429L150.046 82.3ZM164.446 62.65L167.791 66.3665L167.791 66.3665L164.446 62.65ZM189.796 63.85L184.797 63.7281C184.764 65.0749 185.276 66.378 186.217 67.3422C187.158 68.3063 188.448 68.85 189.796 68.85V63.85ZM190.846 63.85V68.85C192.823 68.85 194.614 67.6849 195.416 65.8775L190.846 63.85ZM208.546 23.95L210.449 19.3266C207.944 18.2951 205.074 19.4462 203.975 21.9225L208.546 23.95ZM177.946 84.4L182.399 86.6739C182.405 86.6613 182.412 86.6487 182.418 86.6361L177.946 84.4ZM180.496 79.3L184.968 81.5361C185.046 81.3797 185.116 81.2193 185.177 81.0556L180.496 79.3ZM181.846 76.15L186.318 78.3861C186.424 78.1745 186.514 77.9556 186.589 77.7311L181.846 76.15ZM183.196 72.25L178.497 70.5413L178.497 70.5413L183.196 72.25ZM173.896 77.35L169.503 74.9624C169.499 74.9681 169.496 74.9738 169.493 74.9795L173.896 77.35ZM168.646 93.55L163.743 94.5306C163.783 94.7339 163.837 94.9345 163.902 95.1311L168.646 93.55ZM223.372 20.4705L194.422 81.9705L203.47 86.2295L232.42 24.7295L223.372 20.4705ZM194.406 82.0047C193.046 84.9506 191.961 87.3893 191.189 89.2699C190.804 90.208 190.476 91.0565 190.227 91.7878C190.007 92.4311 189.739 93.2897 189.634 94.1298L199.557 95.3702C199.527 95.6103 199.503 95.5689 199.691 95.0168C199.849 94.5528 200.094 93.9107 200.44 93.0676C201.13 91.3857 202.145 89.0994 203.486 86.1953L194.406 82.0047ZM189.765 93.4617C189.354 95.001 188.956 97.617 190.507 99.9839C192.217 102.593 195.007 103.05 196.696 103.05V93.05C196.434 93.05 197.875 92.9819 198.872 94.5036C199.304 95.1627 199.382 95.758 199.393 96.0173C199.402 96.2537 199.36 96.2875 199.427 96.0383L189.765 93.4617ZM196.696 103.05C199.939 103.05 202.616 101.352 204.644 99.4207C206.71 97.4531 208.639 94.7441 210.48 91.5424L201.811 86.5576C200.202 89.3559 198.831 91.1469 197.747 92.1793C196.625 93.2479 196.303 93.05 196.696 93.05V103.05ZM201.413 87.4366C199.342 93.511 196.303 99.1836 192.271 104.467L200.22 110.533C204.889 104.416 208.449 97.789 210.878 90.6634L201.413 87.4366ZM192.271 104.467C188.556 109.335 185.087 110.9 181.846 110.9V120.9C189.104 120.9 195.236 117.065 200.22 110.533L192.271 104.467ZM181.846 110.9C180.314 110.9 179.429 110.624 178.945 110.365C178.532 110.144 178.219 109.842 177.954 109.278C177.291 107.864 176.953 104.772 178.31 99.0554L168.581 96.7446C167.089 103.028 166.75 108.936 168.9 113.522C170.042 115.958 171.838 117.906 174.233 119.185C176.556 120.426 179.177 120.9 181.846 120.9V110.9ZM168.974 95.6639C166.112 101.388 163.351 105.279 160.795 107.683C158.29 110.039 156.232 110.75 154.546 110.75V120.75C159.459 120.75 163.851 118.536 167.646 114.967C171.391 111.446 174.78 106.412 177.918 100.136L168.974 95.6639ZM154.546 110.75C153.119 110.75 152.201 110.291 151.346 109.15L143.346 115.15C146.09 118.809 149.972 120.75 154.546 120.75V110.75ZM151.226 108.997C150.148 107.669 149.496 105.859 149.496 103.3H139.496C139.496 107.641 140.644 111.831 143.465 115.303L151.226 108.997ZM149.496 103.3C149.496 97.9453 151.03 91.6508 154.535 84.5008L145.556 80.0992C141.561 88.2492 139.496 96.0547 139.496 103.3H149.496ZM154.57 84.429C157.908 77.335 162.322 71.288 167.791 66.3665L161.101 58.9335C154.569 64.812 149.383 71.965 145.522 80.171L154.57 84.429ZM167.791 66.3665C173.299 61.4088 177.855 59.55 181.696 59.55V49.55C174.437 49.55 167.592 53.0912 161.101 58.9335L167.791 66.3665ZM181.696 59.55C183.534 59.55 183.997 60.0444 184.106 60.1701C184.316 60.4115 184.857 61.2944 184.797 63.7281L194.794 63.9719C194.885 60.2556 194.151 56.4885 191.66 53.6174C189.069 50.6306 185.407 49.55 181.696 49.55V59.55ZM189.796 68.85H190.846V58.85H189.796V68.85ZM195.416 65.8775L213.116 25.9775L203.975 21.9225L186.275 61.8225L195.416 65.8775ZM206.642 28.5734C213.408 31.3595 221.298 30.4948 229.691 27.2667L226.101 17.9333C218.894 20.7052 213.883 20.7405 210.449 19.3266L206.642 28.5734ZM182.418 86.6361L184.968 81.5361L176.024 77.0639L173.474 82.1639L182.418 86.6361ZM185.177 81.0556C185.582 79.9775 185.964 79.0942 186.318 78.3861L177.374 73.9139C176.828 75.0058 176.31 76.2225 175.814 77.5444L185.177 81.0556ZM186.589 77.7311C186.887 76.8367 187.319 75.541 187.895 73.9587L178.497 70.5413C177.872 72.259 177.404 73.6633 177.102 74.5689L186.589 77.7311ZM187.895 73.9587C188.704 71.7321 188.946 69.8012 188.946 68.35H178.946C178.946 68.6988 178.887 69.4679 178.497 70.5413L187.895 73.9587ZM188.946 68.35C188.946 67.1179 188.643 65.6564 187.714 64.3563C186.731 62.98 185.042 61.85 182.896 61.85V71.85C181.35 71.85 180.185 71.02 179.577 70.1687C179.023 69.3936 178.946 68.6821 178.946 68.35H188.946ZM182.896 61.85C180.989 61.85 179.406 62.605 178.26 63.3829C177.1 64.1702 176.067 65.1952 175.151 66.2719C173.32 68.4233 171.439 71.3994 169.503 74.9624L178.289 79.7376C180.102 76.4006 181.597 74.1267 182.766 72.7531C183.35 72.0673 183.723 71.7611 183.875 71.6577C184.041 71.545 183.677 71.85 182.896 71.85V61.85ZM169.493 74.9795C167.31 79.0346 165.697 82.6315 164.708 85.7285C163.761 88.6925 163.192 91.7759 163.743 94.5306L173.549 92.5694C173.5 92.3241 173.455 91.2075 174.234 88.7715C174.969 86.4685 176.282 83.4654 178.298 79.7205L169.493 74.9795ZM163.902 95.1311C164.184 95.977 164.72 97.2066 165.836 98.2365C167.1 99.4041 168.653 99.9 170.146 99.9V89.9C170.463 89.9 170.892 89.9489 171.369 90.1251C171.856 90.3051 172.279 90.5754 172.618 90.8885C172.944 91.1891 173.14 91.4796 173.246 91.6664C173.35 91.8487 173.388 91.9669 173.389 91.9689L163.902 95.1311ZM170.146 99.9C172.26 99.9 173.845 98.8404 174.73 98.1129C175.701 97.3145 176.565 96.3039 177.33 95.273C178.873 93.1932 180.559 90.2758 182.399 86.6739L173.493 82.1261C171.732 85.5742 170.343 87.9068 169.299 89.3145C168.77 90.0273 168.462 90.3199 168.379 90.3887C168.209 90.5283 168.856 89.9 170.146 89.9V99.9ZM257.407 80.5L255.171 76.0279C254.263 76.4817 253.515 77.2011 253.026 78.0904L257.407 80.5ZM257.707 80.35L262.507 81.75C263.064 79.8417 262.437 77.7849 260.911 76.5112C259.385 75.2376 257.249 74.9889 255.471 75.8779L257.707 80.35ZM238.807 102.55L238.629 97.5532C237.163 97.6055 235.794 98.2989 234.884 99.4497L238.807 102.55ZM205.507 111.4L209.638 108.583C209.61 108.541 209.58 108.5 209.551 108.459L205.507 111.4ZM202.357 98.05L207.35 98.3128C207.35 98.3057 207.351 98.2987 207.351 98.2917L202.357 98.05ZM214.807 69.4L210.903 66.2765L210.903 66.2765L214.807 69.4ZM247.057 89.8L242.602 87.5304C241.779 89.1465 241.895 91.0818 242.906 92.5876C243.917 94.0933 245.665 94.9334 247.472 94.7827L247.057 89.8ZM230.707 97L233.831 100.904C235.404 99.6453 236.068 97.5643 235.515 95.6264L230.707 97ZM232.207 88L236.434 90.67C236.448 90.6492 236.461 90.6282 236.473 90.6072L232.207 88ZM241.057 82.9L241.936 87.8221C243.505 87.542 244.846 86.5306 245.547 85.0993L241.057 82.9ZM244.057 68.05L248.367 65.5149C248.246 65.3094 248.11 65.1127 247.961 64.9265L244.057 68.05ZM231.457 77.8L235.758 80.349C235.764 80.3391 235.77 80.3293 235.776 80.3194L231.457 77.8ZM224.407 96.1H229.407C229.407 96.0405 229.406 95.981 229.404 95.9215L224.407 96.1ZM259.643 84.9721L259.943 84.8221L255.471 75.8779L255.171 76.0279L259.643 84.9721ZM252.907 78.95C248.773 93.1243 243.434 97.3816 238.629 97.5532L238.985 107.547C250.98 107.118 258.241 96.3757 262.507 81.75L252.907 78.95ZM234.884 99.4497C227.945 108.23 221.881 111.35 216.757 111.35V121.35C226.333 121.35 234.969 115.47 242.73 105.65L234.884 99.4497ZM216.757 111.35C212.584 111.35 210.673 110.101 209.638 108.583L201.376 114.217C204.841 119.299 210.43 121.35 216.757 121.35V111.35ZM209.551 108.459C208.037 106.377 207.088 103.287 207.35 98.3128L197.364 97.7872C197.026 104.213 198.177 109.823 201.463 114.341L209.551 108.459ZM207.351 98.2917C207.735 90.36 211.338 81.7399 218.711 72.5235L210.903 66.2765C202.676 76.5601 197.879 87.14 197.363 97.8083L207.351 98.2917ZM218.711 72.5235C225.85 63.5999 233.383 59.7 241.357 59.7V49.7C229.531 49.7 219.364 55.7001 210.903 66.2765L218.711 72.5235ZM241.357 59.7C243.533 59.7 244.941 60.4346 246.047 61.7785L253.767 55.4215C250.673 51.6654 246.381 49.7 241.357 49.7V59.7ZM246.047 61.7785C247.355 63.3667 248.207 65.5203 248.207 68.35H258.207C258.207 63.3797 256.659 58.9333 253.767 55.4215L246.047 61.7785ZM248.207 68.35C248.207 73.5827 246.446 79.9843 242.602 87.5304L251.512 92.0696C255.768 83.7157 258.207 75.7173 258.207 68.35H248.207ZM247.472 94.7827C253.724 94.2618 258.313 89.2276 261.788 82.9096L253.026 78.0904C249.901 83.7724 247.59 84.7382 246.642 84.8173L247.472 94.7827ZM226.357 103.8C229.182 103.8 231.752 102.567 233.831 100.904L227.584 93.0957C226.662 93.8325 226.232 93.8 226.357 93.8V103.8ZM235.515 95.6264C235.065 94.0538 235.271 92.5125 236.434 90.67L227.98 85.33C225.543 89.1875 224.549 93.6462 225.899 98.3736L235.515 95.6264ZM236.473 90.6072C237.095 89.5907 238.504 88.435 241.936 87.8221L240.178 77.9779C235.21 78.865 230.619 81.0093 227.941 85.3927L236.473 90.6072ZM245.547 85.0993C247.446 81.2235 248.771 77.711 249.375 74.6413C249.954 71.7015 250.034 68.3492 248.367 65.5149L239.747 70.5851C239.58 70.3008 239.96 70.6985 239.564 72.7087C239.193 74.589 238.268 77.2264 236.567 80.7007L245.547 85.0993ZM247.961 64.9265C246.68 63.3249 244.608 61.85 241.807 61.85V71.85C241.386 71.85 240.972 71.7355 240.635 71.5498C240.324 71.3788 240.177 71.204 240.153 71.1735L247.961 64.9265ZM241.807 61.85C238.253 61.85 235.448 64.1801 233.549 66.2028C231.448 68.4406 229.315 71.5487 227.138 75.2806L235.776 80.3194C237.799 76.8513 239.491 74.4844 240.84 73.0472C242.391 71.3949 242.661 71.85 241.807 71.85V61.85ZM227.156 75.251C224.68 79.4279 222.733 83.2124 221.416 86.6003C220.117 89.9395 219.301 93.2158 219.41 96.2785L229.404 95.9215C229.363 94.7842 229.672 92.9605 230.736 90.2247C231.781 87.5376 233.434 84.2721 235.758 80.349L227.156 75.251ZM219.407 96.1C219.407 97.3808 219.587 99.3092 220.796 101.015C222.252 103.071 224.441 103.8 226.357 103.8V93.8C226.567 93.8 227.017 93.8349 227.562 94.0839C228.142 94.349 228.622 94.7632 228.956 95.2349C229.527 96.0408 229.407 96.6192 229.407 96.1H219.407Z" fill="#FF6262" fill-opacity="0.2" mask="url(#path-1-outside-1_4_6)"/>
</g>
<defs>
<linearGradient id="paint0_linear_4_6" x1="132" y1="67" x2="132" y2="197" gradientUnits="userSpaceOnUse">
<stop stop-color="#FFC452"/>
<stop offset="1" stop-color="#FFECDA"/>
</linearGradient>
<linearGradient id="paint1_linear_4_6" x1="132" y1="-22" x2="132" y2="197" gradientUnits="userSpaceOnUse">
<stop stop-color="#D58D00"/>
<stop offset="1" stop-color="#FBD87D"/>
</linearGradient>
<clipPath id="clip0_4_6">
<rect width="264" height="167" fill="white"/>
</clipPath>
</defs>
</svg>
